<svg height="512" viewBox="0 0 128 128" width="512" xmlns="http://www.w3.org/2000/svg"><g><g fill="#3ea2e5"><path d="m14.441 24.938-5.6 15.281a41.744 41.744 0 0 0 9.68 43.874l25.382 25.382a41.744 41.744 0 0 0 43.874 9.68l15.281-5.6-23.303-23.303-6.234 6.235a10.04 10.04 0 0 1 -14.2 0l-27.808-27.809a10.04 10.04 0 0 1 0-14.2l6.235-6.234z"/><rect height="23.686" rx="4.528" transform="matrix(.707 .707 -.707 .707 95.362 -43.162)" width="43.565" x="78" y="81.688"/><rect height="23.686" rx="4.528" transform="matrix(.707 .707 -.707 .707 30.048 -16.108)" width="43.565" x="12.686" y="16.374"/></g><g><path d="m26.85 89.943a1.75 1.75 0 1 0 -2.475 2.475l3.182 3.182a1.749 1.749 0 0 0 2.474-2.474z"/><path d="m121.6 96.121-2.434-2.434a1.75 1.75 0 0 0 -2.475 2.474l2.429 2.439a2.776 2.776 0 0 1 0 3.928l-10.344 10.345a2.783 2.783 0 0 1 -3.929 0l-23.854-23.858-.547-.548a2.782 2.782 0 0 1 0-3.929l10.344-10.345a2.846 2.846 0 0 1 3.929 0l16.539 16.539a1.75 1.75 0 1 0 2.475-2.474l-16.539-16.539a6.278 6.278 0 0 0 -8.879 0l-10.345 10.344a6.282 6.282 0 0 0 -.63 8.13l-5.057 5.057a8.3 8.3 0 0 1 -11.724 0l-27.809-27.809a8.3 8.3 0 0 1 0-11.724l5.057-5.057a6.271 6.271 0 0 0 8.129-.63l10.345-10.345a6.277 6.277 0 0 0 0-8.878l-24.4-24.4a6.278 6.278 0 0 0 -8.879 0l-10.346 10.343a6.281 6.281 0 0 0 -.235 8.617l-5.221 14.25a43.636 43.636 0 0 0 10.087 45.713l.967.967a1.75 1.75 0 1 0 2.475-2.475l-.967-.967a40.123 40.123 0 0 1 -9.274-42.034l4.654-12.707 20.131 20.131-5 5a11.8 11.8 0 0 0 0 16.674l27.811 27.805a11.8 11.8 0 0 0 16.674 0l5-5 20.131 20.131-12.707 4.654a40.127 40.127 0 0 1 -42.035-9.274l-9.288-9.289a1.75 1.75 0 1 0 -2.475 2.475l9.289 9.288a43.6 43.6 0 0 0 45.71 10.091l14.249-5.219a6.273 6.273 0 0 0 8.618-.235l10.35-10.346a6.277 6.277 0 0 0 0-8.878zm-106.469-76.897 10.345-10.345a2.78 2.78 0 0 1 3.929 0l24.4 24.4a2.779 2.779 0 0 1 0 3.928l-10.343 10.348a2.783 2.783 0 0 1 -3.929 0l-.546-.545-23.856-23.857a2.782 2.782 0 0 1 0-3.929z"/><path d="m45.576 35.844a1.749 1.749 0 1 0 2.474-2.474l-6.591-6.592a1.75 1.75 0 0 0 -2.475 2.474z"/><path d="m34.406 24.674a1.75 1.75 0 1 0 2.474-2.474l-2.76-2.76a1.75 1.75 0 0 0 -2.475 2.475z"/></g></g></svg>